REM DIRINDEX 1\2\4\18,1\2\4\19,1\2\5\20,1\2\5\21,1\2\6\22,1\2\6\23,1\2\7\24,1\2\8\25,1\2\9\26,1\2\10\27,1\2\10\28,1\3\11\29,1\3\11\30,1\3\11\31,1\3\11\32,1\3\12\33,1\3\12\34,1\3\12\35,1\3\12\36,1\3\13\37,1\3\13\38,1\3\13\39,1\3\13\40,1\3\14\41,1\3\14\42,1\3\15\43,1\3\15\44,1\3\16\45,1\3\16\46,1\3\17\47,1\3\17\48,1\3\17\49,1\3\17\50
REM DIRNAME cjc135,folder01,folder02,folder03,folder04,folder05,folder06,folder07,folder08,folder09,folder10,folder11,folder12,folder13,folder14,folder15,folder16,folder17,folder18,folder19,folder20,folder21,folder22,folder23,folder24,folder25,folder26,folder27,folder28,folder29,folder30,folder31,folder32,folder33,folder34,folder35,folder36,folder37,folder38,folder39,folder40,folder41,folder42,folder43,folder44,folder45,folder46,folder47,folder48,folder49
TITLE ""
FILE "09.mp3" MP3
  TRACK 01 AUDIO
    TITLE "0:"
    INDEX 01 00:00:00
  TRACK 02 AUDIO
    TITLE "29:cjc135_5260"
    INDEX 01 00:00:09
  TRACK 03 AUDIO
    TITLE "0:"
    INDEX 01 00:01:34
  TRACK 04 AUDIO
    TITLE "30:cjc135_5261"
    INDEX 01 00:02:06
  TRACK 05 AUDIO
    TITLE "0:"
    INDEX 01 00:04:50
  TRACK 06 AUDIO
    TITLE "31:cjc135_5262"
    INDEX 01 00:05:03
  TRACK 07 AUDIO
    TITLE "0:"
    INDEX 01 00:07:37
  TRACK 08 AUDIO
    TITLE "32:cjc135_5263"
    INDEX 01 00:07:64
  TRACK 09 AUDIO
    TITLE "0:"
    INDEX 01 00:10:27
  TRACK 10 AUDIO
    TITLE "29:cjc135_5264"
    INDEX 01 00:11:27
  TRACK 11 AUDIO
    TITLE "0:"
    INDEX 01 00:12:38
  TRACK 12 AUDIO
    TITLE "30:cjc135_5265"
    INDEX 01 00:13:14
  TRACK 13 AUDIO
    TITLE "0:"
    INDEX 01 00:16:38
  TRACK 14 AUDIO
    TITLE "31:cjc135_5266"
    INDEX 01 00:16:61
  TRACK 15 AUDIO
    TITLE "0:"
    INDEX 01 00:19:44
  TRACK 16 AUDIO
    TITLE "32:cjc135_5267"
    INDEX 01 00:19:69
  TRACK 17 AUDIO
    TITLE "0:"
    INDEX 01 00:22:50
  TRACK 18 AUDIO
    TITLE "29:cjc135_5268"
    INDEX 01 00:23:53
  TRACK 19 AUDIO
    TITLE "0:"
    INDEX 01 00:25:11
  TRACK 20 AUDIO
    TITLE "30:cjc135_5269"
    INDEX 01 00:25:62
  TRACK 21 AUDIO
    TITLE "0:"
    INDEX 01 00:27:30
  TRACK 22 AUDIO
    TITLE "31:cjc135_5270"
    INDEX 01 00:27:55
  TRACK 23 AUDIO
    TITLE "0:"
    INDEX 01 00:29:52
  TRACK 24 AUDIO
    TITLE "32:cjc135_5271"
    INDEX 01 00:30:03
  TRACK 25 AUDIO
    TITLE "0:"
    INDEX 01 00:32:01
  TRACK 26 AUDIO
    TITLE "29:cjc135_5272"
    INDEX 01 00:32:74
  TRACK 27 AUDIO
    TITLE "0:"
    INDEX 01 00:34:18
  TRACK 28 AUDIO
    TITLE "30:cjc135_5273"
    INDEX 01 00:34:69
  TRACK 29 AUDIO
    TITLE "0:"
    INDEX 01 00:36:52
  TRACK 30 AUDIO
    TITLE "31:cjc135_5274"
    INDEX 01 00:37:05
  TRACK 31 AUDIO
    TITLE "0:"
    INDEX 01 00:38:63
  TRACK 32 AUDIO
    TITLE "32:cjc135_5275"
    INDEX 01 00:39:15
  TRACK 33 AUDIO
    TITLE "0:"
    INDEX 01 00:40:73
  TRACK 34 AUDIO
    TITLE "29:cjc135_5276"
    INDEX 01 00:42:00
  TRACK 35 AUDIO
    TITLE "0:"
    INDEX 01 00:43:25
  TRACK 36 AUDIO
    TITLE "30:cjc135_5277"
    INDEX 01 00:44:03
  TRACK 37 AUDIO
    TITLE "0:"
    INDEX 01 00:45:71
  TRACK 38 AUDIO
    TITLE "31:cjc135_5278"
    INDEX 01 00:46:21
  TRACK 39 AUDIO
    TITLE "0:"
    INDEX 01 00:48:02
  TRACK 40 AUDIO
    TITLE "32:cjc135_5279"
    INDEX 01 00:48:30
  TRACK 41 AUDIO
    TITLE "0:"
    INDEX 01 00:50:09
  TRACK 42 AUDIO
    TITLE "29:cjc135_5280"
    INDEX 01 00:51:13
  TRACK 43 AUDIO
    TITLE "0:"
    INDEX 01 00:52:47
  TRACK 44 AUDIO
    TITLE "30:cjc135_5281"
    INDEX 01 00:53:19
  TRACK 45 AUDIO
    TITLE "0:"
    INDEX 01 00:55:32
  TRACK 46 AUDIO
    TITLE "31:cjc135_5282"
    INDEX 01 00:55:57
  TRACK 47 AUDIO
    TITLE "0:"
    INDEX 01 00:58:13
  TRACK 48 AUDIO
    TITLE "32:cjc135_5283"
    INDEX 01 00:58:38
  TRACK 49 AUDIO
    TITLE "0:"
    INDEX 01 01:00:68
  TRACK 50 AUDIO
    TITLE "29:cjc135_5284"
    INDEX 01 01:01:68
  TRACK 51 AUDIO
    TITLE "0:"
    INDEX 01 01:03:10
  TRACK 52 AUDIO
    TITLE "30:cjc135_5285"
    INDEX 01 01:03:63
  TRACK 53 AUDIO
    TITLE "0:"
    INDEX 01 01:05:60
  TRACK 54 AUDIO
    TITLE "31:cjc135_5286"
    INDEX 01 01:06:10
  TRACK 55 AUDIO
    TITLE "0:"
    INDEX 01 01:07:59
  TRACK 56 AUDIO
    TITLE "32:cjc135_5287"
    INDEX 01 01:08:09
  TRACK 57 AUDIO
    TITLE "0:"
    INDEX 01 01:09:59
  TRACK 58 AUDIO
    TITLE "29:cjc135_5288"
    INDEX 01 01:10:59
  TRACK 59 AUDIO
    TITLE "0:"
    INDEX 01 01:11:70
  TRACK 60 AUDIO
    TITLE "30:cjc135_5289"
    INDEX 01 01:12:48
  TRACK 61 AUDIO
    TITLE "0:"
    INDEX 01 01:15:09
  TRACK 62 AUDIO
    TITLE "31:cjc135_5290"
    INDEX 01 01:15:35
  TRACK 63 AUDIO
    TITLE "0:"
    INDEX 01 01:18:35
  TRACK 64 AUDIO
    TITLE "32:cjc135_5291"
    INDEX 01 01:18:62
  TRACK 65 AUDIO
    TITLE "0:"
    INDEX 01 01:21:63
  TRACK 66 AUDIO
    TITLE "29:cjc135_5292"
    INDEX 01 01:22:64
  TRACK 67 AUDIO
    TITLE "0:"
    INDEX 01 01:23:67
  TRACK 68 AUDIO
    TITLE "30:cjc135_5293"
    INDEX 01 01:24:41
  TRACK 69 AUDIO
    TITLE "0:"
    INDEX 01 01:26:68
  TRACK 70 AUDIO
    TITLE "31:cjc135_5294"
    INDEX 01 01:27:28
  TRACK 71 AUDIO
    TITLE "0:"
    INDEX 01 01:29:41
  TRACK 72 AUDIO
    TITLE "32:cjc135_5295"
    INDEX 01 01:29:68
  TRACK 73 AUDIO
    TITLE "0:"
    INDEX 01 01:32:06
  TRACK 74 AUDIO
    TITLE "29:cjc135_5296"
    INDEX 01 01:33:07
  TRACK 75 AUDIO
    TITLE "0:"
    INDEX 01 01:34:10
  TRACK 76 AUDIO
    TITLE "30:cjc135_5297"
    INDEX 01 01:34:61
  TRACK 77 AUDIO
    TITLE "0:"
    INDEX 01 01:37:11
  TRACK 78 AUDIO
    TITLE "31:cjc135_5298"
    INDEX 01 01:37:36
  TRACK 79 AUDIO
    TITLE "0:"
    INDEX 01 01:39:27
  TRACK 80 AUDIO
    TITLE "32:cjc135_5299"
    INDEX 01 01:39:53
  TRACK 81 AUDIO
    TITLE "0:"
    INDEX 01 01:41:40
  TRACK 82 AUDIO
    TITLE "29:cjc135_5300"
    INDEX 01 01:42:41
  TRACK 83 AUDIO
    TITLE "0:"
    INDEX 01 01:43:52
  TRACK 84 AUDIO
    TITLE "30:cjc135_5301"
    INDEX 01 01:44:30
  TRACK 85 AUDIO
    TITLE "0:"
    INDEX 01 01:46:27
  TRACK 86 AUDIO
    TITLE "31:cjc135_5302"
    INDEX 01 01:46:49
  TRACK 87 AUDIO
    TITLE "0:"
    INDEX 01 01:48:61
  TRACK 88 AUDIO
    TITLE "32:cjc135_5303"
    INDEX 01 01:49:12
  TRACK 89 AUDIO
    TITLE "0:"
    INDEX 01 01:51:25
  TRACK 90 AUDIO
    TITLE "29:cjc135_5304"
    INDEX 01 01:52:26
  TRACK 91 AUDIO
    TITLE "0:"
    INDEX 01 01:53:21
  TRACK 92 AUDIO
    TITLE "30:cjc135_5305"
    INDEX 01 01:53:70
  TRACK 93 AUDIO
    TITLE "0:"
    INDEX 01 01:55:73
  TRACK 94 AUDIO
    TITLE "31:cjc135_5306"
    INDEX 01 01:56:22
  TRACK 95 AUDIO
    TITLE "0:"
    INDEX 01 01:58:19
  TRACK 96 AUDIO
    TITLE "32:cjc135_5307"
    INDEX 01 01:58:44
  TRACK 97 AUDIO
    TITLE "0:"
    INDEX 01 02:00:41
  TRACK 98 AUDIO
    TITLE "29:cjc135_5308"
    INDEX 01 02:01:43
  TRACK 99 AUDIO
    TITLE "0:"
    INDEX 01 02:02:48
  TRACK 100 AUDIO
    TITLE "30:cjc135_5309"
    INDEX 01 02:03:24
  TRACK 101 AUDIO
    TITLE "0:"
    INDEX 01 02:05:19
  TRACK 102 AUDIO
    TITLE "31:cjc135_5310"
    INDEX 01 02:05:44
  TRACK 103 AUDIO
    TITLE "0:"
    INDEX 01 02:07:41
  TRACK 104 AUDIO
    TITLE "32:cjc135_5311"
    INDEX 01 02:07:67
  TRACK 105 AUDIO
    TITLE "0:"
    INDEX 01 02:09:62
  TRACK 106 AUDIO
    TITLE "29:cjc135_5312"
    INDEX 01 02:10:65
  TRACK 107 AUDIO
    TITLE "0:"
    INDEX 01 02:12:01
  TRACK 108 AUDIO
    TITLE "30:cjc135_5313"
    INDEX 01 02:12:52
  TRACK 109 AUDIO
    TITLE "0:"
    INDEX 01 02:14:67
  TRACK 110 AUDIO
    TITLE "31:cjc135_5314"
    INDEX 01 02:15:17
  TRACK 111 AUDIO
    TITLE "0:"
    INDEX 01 02:17:08
  TRACK 112 AUDIO
    TITLE "32:cjc135_5315"
    INDEX 01 02:17:32
  TRACK 113 AUDIO
    TITLE "0:"
    INDEX 01 02:19:21
  TRACK 114 AUDIO
    TITLE "29:cjc135_5316"
    INDEX 01 02:20:22
  TRACK 115 AUDIO
    TITLE "0:"
    INDEX 01 02:21:49
  TRACK 116 AUDIO
    TITLE "30:cjc135_5317"
    INDEX 01 02:22:21
  TRACK 117 AUDIO
    TITLE "0:"
    INDEX 01 02:24:63
  TRACK 118 AUDIO
    TITLE "31:cjc135_5318"
    INDEX 01 02:25:16
  TRACK 119 AUDIO
    TITLE "0:"
    INDEX 01 02:27:42
  TRACK 120 AUDIO
    TITLE "32:cjc135_5319"
    INDEX 01 02:27:67
  TRACK 121 AUDIO
    TITLE "0:"
    INDEX 01 02:30:19
  TRACK 122 AUDIO
    TITLE "29:cjc135_5320"
    INDEX 01 02:31:20
  TRACK 123 AUDIO
    TITLE "0:"
    INDEX 01 02:32:29
  TRACK 124 AUDIO
    TITLE "30:cjc135_5321"
    INDEX 01 02:33:09
  TRACK 125 AUDIO
    TITLE "0:"
    INDEX 01 02:36:29
  TRACK 126 AUDIO
    TITLE "31:cjc135_5322"
    INDEX 01 02:36:57
  TRACK 127 AUDIO
    TITLE "0:"
    INDEX 01 02:39:18
  TRACK 128 AUDIO
    TITLE "32:cjc135_5323"
    INDEX 01 02:39:47
  TRACK 129 AUDIO
    TITLE "0:"
    INDEX 01 02:42:10
  TRACK 130 AUDIO
    TITLE "29:cjc135_5324"
    INDEX 01 02:43:15
  TRACK 131 AUDIO
    TITLE "0:"
    INDEX 01 02:44:19
  TRACK 132 AUDIO
    TITLE "30:cjc135_5325"
    INDEX 01 02:44:70
  TRACK 133 AUDIO
    TITLE "0:"
    INDEX 01 02:46:24
  TRACK 134 AUDIO
    TITLE "31:cjc135_5326"
    INDEX 01 02:46:53
  TRACK 135 AUDIO
    TITLE "0:"
    INDEX 01 02:48:21
  TRACK 136 AUDIO
    TITLE "32:cjc135_5327"
    INDEX 01 02:48:44
  TRACK 137 AUDIO
    TITLE "0:"
    INDEX 01 02:50:12
  TRACK 138 AUDIO
    TITLE "29:cjc135_5328"
    INDEX 01 02:51:13
  TRACK 139 AUDIO
    TITLE "0:"
    INDEX 01 02:52:12
  TRACK 140 AUDIO
    TITLE "30:cjc135_5329"
    INDEX 01 02:52:61
  TRACK 141 AUDIO
    TITLE "0:"
    INDEX 01 02:54:31
  TRACK 142 AUDIO
    TITLE "31:cjc135_5330"
    INDEX 01 02:54:56
  TRACK 143 AUDIO
    TITLE "0:"
    INDEX 01 02:56:10
  TRACK 144 AUDIO
    TITLE "32:cjc135_5331"
    INDEX 01 02:56:34
  TRACK 145 AUDIO
    TITLE "0:"
    INDEX 01 02:57:61
  TRACK 146 AUDIO
    TITLE "29:cjc135_5332"
    INDEX 01 02:58:62
  TRACK 147 AUDIO
    TITLE "0:"
    INDEX 01 03:00:00
  TRACK 148 AUDIO
    TITLE "30:cjc135_5333"
    INDEX 01 03:00:49
  TRACK 149 AUDIO
    TITLE "0:"
    INDEX 01 03:03:08
  TRACK 150 AUDIO
    TITLE "31:cjc135_5334"
    INDEX 01 03:03:34
  TRACK 151 AUDIO
    TITLE "0:"
    INDEX 01 03:05:54
  TRACK 152 AUDIO
    TITLE "32:cjc135_5335"
    INDEX 01 03:06:03
  TRACK 153 AUDIO
    TITLE "0:"
    INDEX 01 03:08:23
  TRACK 154 AUDIO
    TITLE "29:cjc135_5336"
    INDEX 01 03:09:23
  TRACK 155 AUDIO
    TITLE "0:"
    INDEX 01 03:10:46
  TRACK 156 AUDIO
    TITLE "30:cjc135_5337"
    INDEX 01 03:11:22
  TRACK 157 AUDIO
    TITLE "0:"
    INDEX 01 03:14:28
  TRACK 158 AUDIO
    TITLE "31:cjc135_5338"
    INDEX 01 03:14:55
  TRACK 159 AUDIO
    TITLE "0:"
    INDEX 01 03:17:56
  TRACK 160 AUDIO
    TITLE "32:cjc135_5339"
    INDEX 01 03:18:04
  TRACK 161 AUDIO
    TITLE "0:"
    INDEX 01 03:21:04
  TRACK 162 AUDIO
    TITLE "29:cjc135_5340"
    INDEX 01 03:22:06
  TRACK 163 AUDIO
    TITLE "0:"
    INDEX 01 03:23:09
  TRACK 164 AUDIO
    TITLE "30:cjc135_5341"
    INDEX 01 03:23:60
  TRACK 165 AUDIO
    TITLE "0:"
    INDEX 01 03:25:18
  TRACK 166 AUDIO
    TITLE "31:cjc135_5342"
    INDEX 01 03:25:45
  TRACK 167 AUDIO
    TITLE "0:"
    INDEX 01 03:27:36
  TRACK 168 AUDIO
    TITLE "32:cjc135_5343"
    INDEX 01 03:27:60
  TRACK 169 AUDIO
    TITLE "0:"
    INDEX 01 03:29:49
  TRACK 170 AUDIO
    TITLE "29:cjc135_5344"
    INDEX 01 03:30:50
  TRACK 171 AUDIO
    TITLE "0:"
    INDEX 01 03:32:04
  TRACK 172 AUDIO
    TITLE "30:cjc135_5345"
    INDEX 01 03:32:55
  TRACK 173 AUDIO
    TITLE "0:"
    INDEX 01 03:35:40
  TRACK 174 AUDIO
    TITLE "31:cjc135_5346"
    INDEX 01 03:35:61
  TRACK 175 AUDIO
    TITLE "0:"
    INDEX 01 03:38:26
  TRACK 176 AUDIO
    TITLE "32:cjc135_5347"
    INDEX 01 03:38:50
  TRACK 177 AUDIO
    TITLE "0:"
    INDEX 01 03:41:13
  TRACK 178 AUDIO
    TITLE "29:cjc135_5348"
    INDEX 01 03:42:14
  TRACK 179 AUDIO
    TITLE "0:"
    INDEX 01 03:43:26
  TRACK 180 AUDIO
    TITLE "30:cjc135_5349"
    INDEX 01 03:44:00
  TRACK 181 AUDIO
    TITLE "0:"
    INDEX 01 03:46:10
  TRACK 182 AUDIO
    TITLE "31:cjc135_5350"
    INDEX 01 03:46:36
  TRACK 183 AUDIO
    TITLE "0:"
    INDEX 01 03:48:35
  TRACK 184 AUDIO
    TITLE "32:cjc135_5351"
    INDEX 01 03:48:60
  TRACK 185 AUDIO
    TITLE "0:"
    INDEX 01 03:50:57
  TRACK 186 AUDIO
    TITLE "29:cjc135_5352"
    INDEX 01 03:51:60
  TRACK 187 AUDIO
    TITLE "0:"
    INDEX 01 03:53:14
  TRACK 188 AUDIO
    TITLE "30:cjc135_5353"
    INDEX 01 03:53:65
  TRACK 189 AUDIO
    TITLE "0:"
    INDEX 01 03:55:58
  TRACK 190 AUDIO
    TITLE "31:cjc135_5354"
    INDEX 01 03:56:11
  TRACK 191 AUDIO
    TITLE "0:"
    INDEX 01 03:58:41
  TRACK 192 AUDIO
    TITLE "32:cjc135_5355"
    INDEX 01 03:58:68
  TRACK 193 AUDIO
    TITLE "0:"
    INDEX 01 04:01:25
  TRACK 194 AUDIO
    TITLE "29:cjc135_5356"
    INDEX 01 04:02:25
  TRACK 195 AUDIO
    TITLE "0:"
    INDEX 01 04:03:36
  TRACK 196 AUDIO
    TITLE "30:cjc135_5357"
    INDEX 01 04:04:12
  TRACK 197 AUDIO
    TITLE "0:"
    INDEX 01 04:05:74
  TRACK 198 AUDIO
    TITLE "31:cjc135_5358"
    INDEX 01 04:06:25
  TRACK 199 AUDIO
    TITLE "0:"
    INDEX 01 04:08:39
  TRACK 200 AUDIO
    TITLE "32:cjc135_5359"
    INDEX 01 04:08:65
  TRACK 201 AUDIO
    TITLE "0:"
    INDEX 01 04:11:06
  TRACK 202 AUDIO
    TITLE "29:cjc135_5360"
    INDEX 01 04:12:06
  TRACK 203 AUDIO
    TITLE "0:"
    INDEX 01 04:13:17
  TRACK 204 AUDIO
    TITLE "30:cjc135_5361"
    INDEX 01 04:13:68
  TRACK 205 AUDIO
    TITLE "0:"
    INDEX 01 04:16:11
  TRACK 206 AUDIO
    TITLE "31:cjc135_5362"
    INDEX 01 04:16:35
  TRACK 207 AUDIO
    TITLE "0:"
    INDEX 01 04:18:65
  TRACK 208 AUDIO
    TITLE "32:cjc135_5363"
    INDEX 01 04:19:17
  TRACK 209 AUDIO
    TITLE "0:"
    INDEX 01 04:21:48
  TRACK 210 AUDIO
    TITLE "29:cjc135_5364"
    INDEX 01 04:22:49
  TRACK 211 AUDIO
    TITLE "0:"
    INDEX 01 04:23:70
  TRACK 212 AUDIO
    TITLE "30:cjc135_5365"
    INDEX 01 04:24:44
  TRACK 213 AUDIO
    TITLE "0:"
    INDEX 01 04:27:46
  TRACK 214 AUDIO
    TITLE "31:cjc135_5366"
    INDEX 01 04:27:68
  TRACK 215 AUDIO
    TITLE "0:"
    INDEX 01 04:30:43
  TRACK 216 AUDIO
    TITLE "32:cjc135_5367"
    INDEX 01 04:30:70
  TRACK 217 AUDIO
    TITLE "0:"
    INDEX 01 04:33:45
  TRACK 218 AUDIO
    TITLE "29:cjc135_5368"
    INDEX 01 04:34:46
  TRACK 219 AUDIO
    TITLE "0:"
    INDEX 01 04:35:60
  TRACK 220 AUDIO
    TITLE "30:cjc135_5369"
    INDEX 01 04:36:32
  TRACK 221 AUDIO
    TITLE "0:"
    INDEX 01 04:38:68
  TRACK 222 AUDIO
    TITLE "31:cjc135_5370"
    INDEX 01 04:39:16
  TRACK 223 AUDIO
    TITLE "0:"
    INDEX 01 04:41:25
  TRACK 224 AUDIO
    TITLE "32:cjc135_5371"
    INDEX 01 04:41:50
  TRACK 225 AUDIO
    TITLE "0:"
    INDEX 01 04:43:57
  TRACK 226 AUDIO
    TITLE "29:cjc135_5372"
    INDEX 01 04:44:57
  TRACK 227 AUDIO
    TITLE "0:"
    INDEX 01 04:46:08
  TRACK 228 AUDIO
    TITLE "30:cjc135_5373"
    INDEX 01 04:46:55
  TRACK 229 AUDIO
    TITLE "0:"
    INDEX 01 04:48:45
  TRACK 230 AUDIO
    TITLE "31:cjc135_5374"
    INDEX 01 04:48:70
  TRACK 231 AUDIO
    TITLE "0:"
    INDEX 01 04:50:63
  TRACK 232 AUDIO
    TITLE "32:cjc135_5375"
    INDEX 01 04:51:17
  TRACK 233 AUDIO
    TITLE "0:"
    INDEX 01 04:53:12
  TRACK 234 AUDIO
    TITLE "29:cjc135_5376"
    INDEX 01 04:54:14
  TRACK 235 AUDIO
    TITLE "0:"
    INDEX 01 04:55:29
  TRACK 236 AUDIO
    TITLE "30:cjc135_5377"
    INDEX 01 04:56:05
  TRACK 237 AUDIO
    TITLE "0:"
    INDEX 01 04:58:72
  TRACK 238 AUDIO
    TITLE "31:cjc135_5378"
    INDEX 01 04:59:23
  TRACK 239 AUDIO
    TITLE "0:"
    INDEX 01 05:01:65
  TRACK 240 AUDIO
    TITLE "32:cjc135_5379"
    INDEX 01 05:02:17
  TRACK 241 AUDIO
    TITLE "0:"
    INDEX 01 05:04:63
  TRACK 242 AUDIO
    TITLE "29:cjc135_5380"
    INDEX 01 05:05:63
  TRACK 243 AUDIO
    TITLE "0:"
    INDEX 01 05:07:15
  TRACK 244 AUDIO
    TITLE "30:cjc135_5381"
    INDEX 01 05:07:65
  TRACK 245 AUDIO
    TITLE "0:"
    INDEX 01 05:09:21
  TRACK 246 AUDIO
    TITLE "31:cjc135_5382"
    INDEX 01 05:09:51
  TRACK 247 AUDIO
    TITLE "0:"
    INDEX 01 05:11:50
  TRACK 248 AUDIO
    TITLE "32:cjc135_5383"
    INDEX 01 05:11:73
  TRACK 249 AUDIO
    TITLE "0:"
    INDEX 01 05:13:70
  TRACK 250 AUDIO
    TITLE "29:cjc135_5384"
    INDEX 01 05:14:71
  TRACK 251 AUDIO
    TITLE "0:"
    INDEX 01 05:16:00
  TRACK 252 AUDIO
    TITLE "30:cjc135_5385"
    INDEX 01 05:16:53
  TRACK 253 AUDIO
    TITLE "0:"
    INDEX 01 05:18:54
  TRACK 254 AUDIO
    TITLE "31:cjc135_5386"
    INDEX 01 05:19:04
  TRACK 255 AUDIO
    TITLE "0:"
    INDEX 01 05:21:40
  TRACK 256 AUDIO
    TITLE "32:cjc135_5387"
    INDEX 01 05:21:66
  TRACK 257 AUDIO
    TITLE "0:"
    INDEX 01 05:24:25
  TRACK 258 AUDIO
    TITLE "29:cjc135_5388"
    INDEX 01 05:25:26
  TRACK 259 AUDIO
    TITLE "0:"
    INDEX 01 05:26:43
  TRACK 260 AUDIO
    TITLE "30:cjc135_5389"
    INDEX 01 05:27:17
  TRACK 261 AUDIO
    TITLE "0:"
    INDEX 01 05:29:14
  TRACK 262 AUDIO
    TITLE "31:cjc135_5390"
    INDEX 01 05:29:38
  TRACK 263 AUDIO
    TITLE "0:"
    INDEX 01 05:31:27
  TRACK 264 AUDIO
    TITLE "32:cjc135_5391"
    INDEX 01 05:31:60
  TRACK 265 AUDIO
    TITLE "0:"
    INDEX 01 05:33:51
  TRACK 266 AUDIO
    TITLE "29:cjc135_5392"
    INDEX 01 05:34:56
  TRACK 267 AUDIO
    TITLE "0:"
    INDEX 01 05:36:02
  TRACK 268 AUDIO
    TITLE "30:cjc135_5393"
    INDEX 01 05:36:51
  TRACK 269 AUDIO
    TITLE "0:"
    INDEX 01 05:39:32
  TRACK 270 AUDIO
    TITLE "31:cjc135_5394"
    INDEX 01 05:39:58
  TRACK 271 AUDIO
    TITLE "0:"
    INDEX 01 05:42:44
  TRACK 272 AUDIO
    TITLE "32:cjc135_5395"
    INDEX 01 05:42:68
  TRACK 273 AUDIO
    TITLE "0:"
    INDEX 01 05:45:54
  TRACK 274 AUDIO
    TITLE "29:cjc135_5396"
    INDEX 01 05:46:52
  TRACK 275 AUDIO
    TITLE "0:"
    INDEX 01 05:47:73
  TRACK 276 AUDIO
    TITLE "30:cjc135_5397"
    INDEX 01 05:48:49
  TRACK 277 AUDIO
    TITLE "0:"
    INDEX 01 05:51:27
  TRACK 278 AUDIO
    TITLE "31:cjc135_5398"
    INDEX 01 05:51:51
  TRACK 279 AUDIO
    TITLE "0:"
    INDEX 01 05:54:12
  TRACK 280 AUDIO
    TITLE "32:cjc135_5399"
    INDEX 01 05:54:36
  TRACK 281 AUDIO
    TITLE "0:"
    INDEX 01 05:56:72
  TRACK 282 AUDIO
    TITLE "29:cjc135_5400"
    INDEX 01 05:57:71
  TRACK 283 AUDIO
    TITLE "0:"
    INDEX 01 05:58:73
  TRACK 284 AUDIO
    TITLE "30:cjc135_5401"
    INDEX 01 05:59:45
  TRACK 285 AUDIO
    TITLE "0:"
    INDEX 01 06:01:22
  TRACK 286 AUDIO
    TITLE "31:cjc135_5402"
    INDEX 01 06:01:47
  TRACK 287 AUDIO
    TITLE "0:"
    INDEX 01 06:03:39
  TRACK 288 AUDIO
    TITLE "32:cjc135_5403"
    INDEX 01 06:03:64
  TRACK 289 AUDIO
    TITLE "0:"
    INDEX 01 06:05:55
  TRACK 290 AUDIO
    TITLE "29:cjc135_5404"
    INDEX 01 06:06:60
  TRACK 291 AUDIO
    TITLE "0:"
    INDEX 01 06:07:70
  TRACK 292 AUDIO
    TITLE "30:cjc135_5405"
    INDEX 01 06:08:46
  TRACK 293 AUDIO
    TITLE "0:"
    INDEX 01 06:10:74
  TRACK 294 AUDIO
    TITLE "31:cjc135_5406"
    INDEX 01 06:11:24
  TRACK 295 AUDIO
    TITLE "0:"
    INDEX 01 06:13:43
  TRACK 296 AUDIO
    TITLE "32:cjc135_5407"
    INDEX 01 06:13:70
  TRACK 297 AUDIO
    TITLE "0:"
    INDEX 01 06:16:12
  TRACK 298 AUDIO
    TITLE "29:cjc135_5408"
    INDEX 01 06:17:15
  TRACK 299 AUDIO
    TITLE "0:"
    INDEX 01 06:18:22
  TRACK 300 AUDIO
    TITLE "30:cjc135_5409"
    INDEX 01 06:18:71
  TRACK 301 AUDIO
    TITLE "0:"
    INDEX 01 06:21:29
  TRACK 302 AUDIO
    TITLE "31:cjc135_5410"
    INDEX 01 06:21:52
  TRACK 303 AUDIO
    TITLE "0:"
    INDEX 01 06:24:23
  TRACK 304 AUDIO
    TITLE "32:cjc135_5411"
    INDEX 01 06:24:50
  TRACK 305 AUDIO
    TITLE "0:"
    INDEX 01 06:27:23
  TRACK 306 AUDIO
    TITLE "29:cjc135_5412"
    INDEX 01 06:28:23
  TRACK 307 AUDIO
    TITLE "0:"
    INDEX 01 06:29:24
  TRACK 308 AUDIO
    TITLE "30:cjc135_5413"
    INDEX 01 06:30:00
  TRACK 309 AUDIO
    TITLE "0:"
    INDEX 01 06:32:24
  TRACK 310 AUDIO
    TITLE "31:cjc135_5414"
    INDEX 01 06:32:50
  TRACK 311 AUDIO
    TITLE "0:"
    INDEX 01 06:34:39
  TRACK 312 AUDIO
    TITLE "32:cjc135_5415"
    INDEX 01 06:34:65
  TRACK 313 AUDIO
    TITLE "0:"
    INDEX 01 06:36:56
  TRACK 314 AUDIO
    TITLE "29:cjc135_5416"
    INDEX 01 06:37:55
  TRACK 315 AUDIO
    TITLE "0:"
    INDEX 01 06:38:66
  TRACK 316 AUDIO
    TITLE "30:cjc135_5417"
    INDEX 01 06:39:40
  TRACK 317 AUDIO
    TITLE "0:"
    INDEX 01 06:41:49
  TRACK 318 AUDIO
    TITLE "31:cjc135_5418"
    INDEX 01 06:41:74
  TRACK 319 AUDIO
    TITLE "0:"
    INDEX 01 06:43:71
  TRACK 320 AUDIO
    TITLE "32:cjc135_5419"
    INDEX 01 06:44:22
  TRACK 321 AUDIO
    TITLE "0:"
    INDEX 01 06:46:17
  TRACK 322 AUDIO
    TITLE "29:cjc135_5420"
    INDEX 01 06:47:20
  TRACK 323 AUDIO
    TITLE "0:"
    INDEX 01 06:48:51
  TRACK 324 AUDIO
    TITLE "30:cjc135_5421"
    INDEX 01 06:49:29
  TRACK 325 AUDIO
    TITLE "0:"
    INDEX 01 06:51:53
  TRACK 326 AUDIO
    TITLE "31:cjc135_5422"
    INDEX 01 06:52:04
  TRACK 327 AUDIO
    TITLE "0:"
    INDEX 01 06:54:44
  TRACK 328 AUDIO
    TITLE "32:cjc135_5423"
    INDEX 01 06:54:69
  TRACK 329 AUDIO
    TITLE "0:"
    INDEX 01 06:57:34
  TRACK 330 AUDIO
    TITLE "29:cjc135_5424"
    INDEX 01 06:58:36
  TRACK 331 AUDIO
    TITLE "0:"
    INDEX 01 06:59:59
  TRACK 332 AUDIO
    TITLE "30:cjc135_5425"
    INDEX 01 07:00:33
  TRACK 333 AUDIO
    TITLE "0:"
    INDEX 01 07:02:61
  TRACK 334 AUDIO
    TITLE "31:cjc135_5426"
    INDEX 01 07:03:13
  TRACK 335 AUDIO
    TITLE "0:"
    INDEX 01 07:05:63
  TRACK 336 AUDIO
    TITLE "32:cjc135_5427"
    INDEX 01 07:06:12
  TRACK 337 AUDIO
    TITLE "0:"
    INDEX 01 07:08:63
  TRACK 338 AUDIO
    TITLE "29:cjc135_5428"
    INDEX 01 07:09:63
  TRACK 339 AUDIO
    TITLE "0:"
    INDEX 01 07:10:68
  TRACK 340 AUDIO
    TITLE "30:cjc135_5429"
    INDEX 01 07:11:42
  TRACK 341 AUDIO
    TITLE "0:"
    INDEX 01 07:13:39
  TRACK 342 AUDIO
    TITLE "31:cjc135_5430"
    INDEX 01 07:13:65
  TRACK 343 AUDIO
    TITLE "0:"
    INDEX 01 07:15:44
  TRACK 344 AUDIO
    TITLE "32:cjc135_5431"
    INDEX 01 07:15:69
  TRACK 345 AUDIO
    TITLE "0:"
    INDEX 01 07:17:51
  TRACK 346 AUDIO
    TITLE "29:cjc135_5432"
    INDEX 01 07:18:50
  TRACK 347 AUDIO
    TITLE "0:"
    INDEX 01 07:19:67
  TRACK 348 AUDIO
    TITLE "30:cjc135_5433"
    INDEX 01 07:20:43
  TRACK 349 AUDIO
    TITLE "0:"
    INDEX 01 07:22:58
  TRACK 350 AUDIO
    TITLE "31:cjc135_5434"
    INDEX 01 07:23:08
  TRACK 351 AUDIO
    TITLE "0:"
    INDEX 01 07:25:25
  TRACK 352 AUDIO
    TITLE "32:cjc135_5435"
    INDEX 01 07:25:50
  TRACK 353 AUDIO
    TITLE "0:"
    INDEX 01 07:27:67
  TRACK 354 AUDIO
    TITLE "29:cjc135_5436"
    INDEX 01 07:28:68
  TRACK 355 AUDIO
    TITLE "0:"
    INDEX 01 07:30:02
  TRACK 356 AUDIO
    TITLE "30:cjc135_5437"
    INDEX 01 07:30:51
  TRACK 357 AUDIO
    TITLE "0:"
    INDEX 01 07:33:50
  TRACK 358 AUDIO
    TITLE "31:cjc135_5438"
    INDEX 01 07:34:00
  TRACK 359 AUDIO
    TITLE "0:"
    INDEX 01 07:36:15
  TRACK 360 AUDIO
    TITLE "32:cjc135_5439"
    INDEX 01 07:36:40
  TRACK 361 AUDIO
    TITLE "0:"
    INDEX 01 07:38:51
  TRACK 362 AUDIO
    TITLE "29:cjc135_5440"
    INDEX 01 07:39:50
  TRACK 363 AUDIO
    TITLE "0:"
    INDEX 01 07:40:61
  TRACK 364 AUDIO
    TITLE "30:cjc135_5441"
    INDEX 01 07:41:39
  TRACK 365 AUDIO
    TITLE "0:"
    INDEX 01 07:44:08
  TRACK 366 AUDIO
    TITLE "31:cjc135_5442"
    INDEX 01 07:44:32
  TRACK 367 AUDIO
    TITLE "0:"
    INDEX 01 07:46:21
  TRACK 368 AUDIO
    TITLE "32:cjc135_5443"
    INDEX 01 07:46:46
  TRACK 369 AUDIO
    TITLE "0:"
    INDEX 01 07:48:37
  TRACK 370 AUDIO
    TITLE "29:cjc135_5444"
    INDEX 01 07:49:37
  TRACK 371 AUDIO
    TITLE "0:"
    INDEX 01 07:50:48
  TRACK 372 AUDIO
    TITLE "30:cjc135_5445"
    INDEX 01 07:51:22
  TRACK 373 AUDIO
    TITLE "0:"
    INDEX 01 07:54:48
  TRACK 374 AUDIO
    TITLE "31:cjc135_5446"
    INDEX 01 07:55:00
  TRACK 375 AUDIO
    TITLE "0:"
    INDEX 01 07:58:06
  TRACK 376 AUDIO
    TITLE "32:cjc135_5447"
    INDEX 01 07:58:30
  TRACK 377 AUDIO
    TITLE "0:"
    INDEX 01 08:01:36
  TRACK 378 AUDIO
    TITLE "29:cjc135_5448"
    INDEX 01 08:02:36
  TRACK 379 AUDIO
    TITLE "0:"
    INDEX 01 08:03:47
  TRACK 380 AUDIO
    TITLE "30:cjc135_5449"
    INDEX 01 08:04:23
  TRACK 381 AUDIO
    TITLE "0:"
    INDEX 01 08:06:10
  TRACK 382 AUDIO
    TITLE "31:cjc135_5450"
    INDEX 01 08:06:37
  TRACK 383 AUDIO
    TITLE "0:"
    INDEX 01 08:08:44
  TRACK 384 AUDIO
    TITLE "32:cjc135_5451"
    INDEX 01 08:08:72
  TRACK 385 AUDIO
    TITLE "0:"
    INDEX 01 08:11:07
  TRACK 386 AUDIO
    TITLE "29:cjc135_5452"
    INDEX 01 08:12:07
  TRACK 387 AUDIO
    TITLE "0:"
    INDEX 01 08:13:22
  TRACK 388 AUDIO
    TITLE "30:cjc135_5453"
    INDEX 01 08:13:73
  TRACK 389 AUDIO
    TITLE "0:"
    INDEX 01 08:16:67
  TRACK 390 AUDIO
    TITLE "31:cjc135_5454"
    INDEX 01 08:17:20
  TRACK 391 AUDIO
    TITLE "0:"
    INDEX 01 08:19:56
  TRACK 392 AUDIO
    TITLE "32:cjc135_5455"
    INDEX 01 08:20:02
  TRACK 393 AUDIO
    TITLE "0:"
    INDEX 01 08:22:38
  TRACK 394 AUDIO
    TITLE "29:cjc135_5456"
    INDEX 01 08:23:42
  TRACK 395 AUDIO
    TITLE "0:"
    INDEX 01 08:24:43
  TRACK 396 AUDIO
    TITLE "30:cjc135_5457"
    INDEX 01 08:25:19
  TRACK 397 AUDIO
    TITLE "0:"
    INDEX 01 08:27:59
  TRACK 398 AUDIO
    TITLE "31:cjc135_5458"
    INDEX 01 08:28:08
  TRACK 399 AUDIO
    TITLE "0:"
    INDEX 01 08:29:72
  TRACK 400 AUDIO
    TITLE "32:cjc135_5459"
    INDEX 01 08:30:20
  TRACK 401 AUDIO
    TITLE "0:"
    INDEX 01 08:32:09
  TRACK 402 AUDIO
    TITLE "29:cjc135_5460"
    INDEX 01 08:33:07
  TRACK 403 AUDIO
    TITLE "0:"
    INDEX 01 08:34:14
  TRACK 404 AUDIO
    TITLE "30:cjc135_5461"
    INDEX 01 08:34:63
  TRACK 405 AUDIO
    TITLE "0:"
    INDEX 01 08:37:03
  TRACK 406 AUDIO
    TITLE "31:cjc135_5462"
    INDEX 01 08:37:26
  TRACK 407 AUDIO
    TITLE "0:"
    INDEX 01 08:39:25
  TRACK 408 AUDIO
    TITLE "32:cjc135_5463"
    INDEX 01 08:39:50
  TRACK 409 AUDIO
    TITLE "0:"
    INDEX 01 08:41:49
  TRACK 410 AUDIO
    TITLE "29:cjc135_5464"
    INDEX 01 08:42:47
  TRACK 411 AUDIO
    TITLE "0:"
    INDEX 01 08:43:42
  TRACK 412 AUDIO
    TITLE "30:cjc135_5465"
    INDEX 01 08:44:16
  TRACK 413 AUDIO
    TITLE "0:"
    INDEX 01 08:45:51
  TRACK 414 AUDIO
    TITLE "31:cjc135_5466"
    INDEX 01 08:46:00
  TRACK 415 AUDIO
    TITLE "0:"
    INDEX 01 08:47:40
  TRACK 416 AUDIO
    TITLE "32:cjc135_5467"
    INDEX 01 08:47:66
  TRACK 417 AUDIO
    TITLE "0:"
    INDEX 01 08:49:29
  TRACK 418 AUDIO
    TITLE "29:cjc135_5468"
    INDEX 01 08:50:29
  TRACK 419 AUDIO
    TITLE "0:"
    INDEX 01 08:51:34
  TRACK 420 AUDIO
    TITLE "30:cjc135_5469"
    INDEX 01 08:52:10
  TRACK 421 AUDIO
    TITLE "0:"
    INDEX 01 08:54:50
  TRACK 422 AUDIO
    TITLE "31:cjc135_5470"
    INDEX 01 08:54:72
  TRACK 423 AUDIO
    TITLE "0:"
    INDEX 01 08:57:17
  TRACK 424 AUDIO
    TITLE "32:cjc135_5471"
    INDEX 01 08:57:45
  TRACK 425 AUDIO
    TITLE "0:"
    INDEX 01 08:59:65
  TRACK 426 AUDIO
    TITLE "29:cjc135_5472"
    INDEX 01 09:00:66
  TRACK 427 AUDIO
    TITLE "0:"
    INDEX 01 09:02:12
  TRACK 428 AUDIO
    TITLE "30:cjc135_5473"
    INDEX 01 09:02:59
  TRACK 429 AUDIO
    TITLE "0:"
    INDEX 01 09:04:68
  TRACK 430 AUDIO
    TITLE "31:cjc135_5474"
    INDEX 01 09:05:21
  TRACK 431 AUDIO
    TITLE "0:"
    INDEX 01 09:07:33
  TRACK 432 AUDIO
    TITLE "32:cjc135_5475"
    INDEX 01 09:07:55
  TRACK 433 AUDIO
    TITLE "0:"
    INDEX 01 09:09:69
  TRACK 434 AUDIO
    TITLE "29:cjc135_5476"
    INDEX 01 09:10:65
  TRACK 435 AUDIO
    TITLE "0:"
    INDEX 01 09:12:01
  TRACK 436 AUDIO
    TITLE "30:cjc135_5477"
    INDEX 01 09:12:58
  TRACK 437 AUDIO
    TITLE "0:"
    INDEX 01 09:15:42
  TRACK 438 AUDIO
    TITLE "31:cjc135_5478"
    INDEX 01 09:15:68
  TRACK 439 AUDIO
    TITLE "0:"
    INDEX 01 09:18:13
  TRACK 440 AUDIO
    TITLE "32:cjc135_5479"
    INDEX 01 09:18:37
  TRACK 441 AUDIO
    TITLE "0:"
    INDEX 01 09:20:59
  TRACK 442 AUDIO
    TITLE "29:cjc135_5480"
    INDEX 01 09:21:59
  TRACK 443 AUDIO
    TITLE "0:"
    INDEX 01 09:22:72
  TRACK 444 AUDIO
    TITLE "30:cjc135_5481"
    INDEX 01 09:23:48
  TRACK 445 AUDIO
    TITLE "0:"
    INDEX 01 09:25:19
  TRACK 446 AUDIO
    TITLE "31:cjc135_5482"
    INDEX 01 09:25:45
  TRACK 447 AUDIO
    TITLE "0:"
    INDEX 01 09:27:28
  TRACK 448 AUDIO
    TITLE "32:cjc135_5483"
    INDEX 01 09:27:55
  TRACK 449 AUDIO
    TITLE "0:"
    INDEX 01 09:29:41
  TRACK 450 AUDIO
    TITLE "29:cjc135_5484"
    INDEX 01 09:30:40
  TRACK 451 AUDIO
    TITLE "0:"
    INDEX 01 09:31:55
  TRACK 452 AUDIO
    TITLE "30:cjc135_5485"
    INDEX 01 09:32:29
  TRACK 453 AUDIO
    TITLE "0:"
    INDEX 01 09:34:34
  TRACK 454 AUDIO
    TITLE "31:cjc135_5486"
    INDEX 01 09:34:59
  TRACK 455 AUDIO
    TITLE "0:"
    INDEX 01 09:37:13
  TRACK 456 AUDIO
    TITLE "32:cjc135_5487"
    INDEX 01 09:37:34
  TRACK 457 AUDIO
    TITLE "0:"
    INDEX 01 09:39:63
  TRACK 458 AUDIO
    TITLE "29:cjc135_5488"
    INDEX 01 09:40:62
  TRACK 459 AUDIO
    TITLE "0:"
    INDEX 01 09:41:67
  TRACK 460 AUDIO
    TITLE "30:cjc135_5489"
    INDEX 01 09:42:41
  TRACK 461 AUDIO
    TITLE "0:"
    INDEX 01 09:44:40
  TRACK 462 AUDIO
    TITLE "31:cjc135_5490"
    INDEX 01 09:44:66
  TRACK 463 AUDIO
    TITLE "0:"
    INDEX 01 09:46:45
  TRACK 464 AUDIO
    TITLE "32:cjc135_5491"
    INDEX 01 09:46:72
  TRACK 465 AUDIO
    TITLE "0:"
    INDEX 01 09:48:56
  TRACK 466 AUDIO
    TITLE "29:cjc135_5492"
    INDEX 01 09:49:55
  TRACK 467 AUDIO
    TITLE "0:"
    INDEX 01 09:50:74
  TRACK 468 AUDIO
    TITLE "30:cjc135_5493"
    INDEX 01 09:51:48
  TRACK 469 AUDIO
    TITLE "0:"
    INDEX 01 09:53:49
  TRACK 470 AUDIO
    TITLE "31:cjc135_5494"
    INDEX 01 09:54:05
  TRACK 471 AUDIO
    TITLE "0:"
    INDEX 01 09:56:04
  TRACK 472 AUDIO
    TITLE "32:cjc135_5495"
    INDEX 01 09:56:28
  TRACK 473 AUDIO
    TITLE "0:"
    INDEX 01 09:58:27
  TRACK 474 AUDIO
    TITLE "29:cjc135_5496"
    INDEX 01 09:59:24
  TRACK 475 AUDIO
    TITLE "0:"
    INDEX 01 10:00:43
  TRACK 476 AUDIO
    TITLE "30:cjc135_5497"
    INDEX 01 10:01:19
  TRACK 477 AUDIO
    TITLE "0:"
    INDEX 01 10:03:04
  TRACK 478 AUDIO
    TITLE "31:cjc135_5498"
    INDEX 01 10:03:30
  TRACK 479 AUDIO
    TITLE "0:"
    INDEX 01 10:05:19
  TRACK 480 AUDIO
    TITLE "32:cjc135_5499"
    INDEX 01 10:05:42
  TRACK 481 AUDIO
    TITLE "0:"
    INDEX 01 10:07:31
  TRACK 482 AUDIO
    TITLE "29:cjc135_5500"
    INDEX 01 10:08:29
  TRACK 483 AUDIO
    TITLE "0:"
    INDEX 01 10:09:58
  TRACK 484 AUDIO
    TITLE "30:cjc135_5501"
    INDEX 01 10:10:32
  TRACK 485 AUDIO
    TITLE "0:"
    INDEX 01 10:12:50
  TRACK 486 AUDIO
    TITLE "31:cjc135_5502"
    INDEX 01 10:12:74
  TRACK 487 AUDIO
    TITLE "0:"
    INDEX 01 10:15:35
  TRACK 488 AUDIO
    TITLE "32:cjc135_5503"
    INDEX 01 10:15:60
  TRACK 489 AUDIO
    TITLE "0:"
    INDEX 01 10:18:19
  TRACK 490 AUDIO
    TITLE "29:cjc135_5504"
    INDEX 01 10:19:21
  TRACK 491 AUDIO
    TITLE "0:"
    INDEX 01 10:20:18
  TRACK 492 AUDIO
    TITLE "30:cjc135_5505"
    INDEX 01 10:20:67
  TRACK 493 AUDIO
    TITLE "0:"
    INDEX 01 10:22:68
  TRACK 494 AUDIO
    TITLE "31:cjc135_5506"
    INDEX 01 10:23:17
  TRACK 495 AUDIO
    TITLE "0:"
    INDEX 01 10:24:63
  TRACK 496 AUDIO
    TITLE "32:cjc135_5507"
    INDEX 01 10:25:12
  TRACK 497 AUDIO
    TITLE "0:"
    INDEX 01 10:26:58
  TRACK 498 AUDIO
    TITLE "29:cjc135_5508"
    INDEX 01 10:27:58
  TRACK 499 AUDIO
    TITLE "0:"
    INDEX 01 10:29:06
  TRACK 500 AUDIO
    TITLE "30:cjc135_5509"
    INDEX 01 10:29:55
  TRACK 501 AUDIO
    TITLE "0:"
    INDEX 01 10:32:35
  TRACK 502 AUDIO
    TITLE "31:cjc135_5510"
    INDEX 01 10:32:57
  TRACK 503 AUDIO
    TITLE "0:"
    INDEX 01 10:34:73
  TRACK 504 AUDIO
    TITLE "32:cjc135_5511"
    INDEX 01 10:35:22
  TRACK 505 AUDIO
    TITLE "0:"
    INDEX 01 10:37:38
  TRACK 506 AUDIO
    TITLE "29:cjc135_5512"
    INDEX 01 10:38:38
  TRACK 507 AUDIO
    TITLE "0:"
    INDEX 01 10:39:67
  TRACK 508 AUDIO
    TITLE "30:cjc135_5513"
    INDEX 01 10:40:39
  TRACK 509 AUDIO
    TITLE "0:"
    INDEX 01 10:44:01
  TRACK 510 AUDIO
    TITLE "31:cjc135_5514"
    INDEX 01 10:44:25
  TRACK 511 AUDIO
    TITLE "0:"
    INDEX 01 10:47:27
  TRACK 512 AUDIO
    TITLE "32:cjc135_5515"
    INDEX 01 10:47:52
  TRACK 513 AUDIO
    TITLE "0:"
    INDEX 01 10:50:57
  TRACK 514 AUDIO
    TITLE "29:cjc135_5516"
    INDEX 01 10:51:56
  TRACK 515 AUDIO
    TITLE "0:"
    INDEX 01 10:52:61
  TRACK 516 AUDIO
    TITLE "30:cjc135_5517"
    INDEX 01 10:53:37
  TRACK 517 AUDIO
    TITLE "0:"
    INDEX 01 10:55:72
  TRACK 518 AUDIO
    TITLE "31:cjc135_5518"
    INDEX 01 10:56:22
  TRACK 519 AUDIO
    TITLE "0:"
    INDEX 01 10:58:35
  TRACK 520 AUDIO
    TITLE "32:cjc135_5519"
    INDEX 01 10:58:58
  TRACK 521 AUDIO
    TITLE "0:"
    INDEX 01 11:00:69
  TRACK 522 AUDIO
    TITLE "29:cjc135_5520"
    INDEX 01 11:01:66
  TRACK 523 AUDIO
    TITLE "0:"
    INDEX 01 11:03:04
  TRACK 524 AUDIO
    TITLE "30:cjc135_5521"
    INDEX 01 11:03:55
  TRACK 525 AUDIO
    TITLE "0:"
    INDEX 01 11:06:05
  TRACK 526 AUDIO
    TITLE "31:cjc135_5522"
    INDEX 01 11:06:26
  TRACK 527 AUDIO
    TITLE "0:"
    INDEX 01 11:08:25
  TRACK 528 AUDIO
    TITLE "32:cjc135_5523"
    INDEX 01 11:08:49
  TRACK 529 AUDIO
    TITLE "0:"
    INDEX 01 11:10:48
  TRACK 530 AUDIO
    TITLE "29:cjc135_5524"
    INDEX 01 11:11:47
  TRACK 531 AUDIO
    TITLE "0:"
    INDEX 01 11:12:58
  TRACK 532 AUDIO
    TITLE "30:cjc135_5525"
    INDEX 01 11:13:32
  TRACK 533 AUDIO
    TITLE "0:"
    INDEX 01 11:16:21
  TRACK 534 AUDIO
    TITLE "31:cjc135_5526"
    INDEX 01 11:16:44
  TRACK 535 AUDIO
    TITLE "0:"
    INDEX 01 11:18:71
  TRACK 536 AUDIO
    TITLE "32:cjc135_5527"
    INDEX 01 11:19:23
  TRACK 537 AUDIO
    TITLE "0:"
    INDEX 01 11:21:49
  TRACK 538 AUDIO
    TITLE "29:cjc135_5528"
    INDEX 01 11:22:49
  TRACK 539 AUDIO
    TITLE "0:"
    INDEX 01 11:23:58
  TRACK 540 AUDIO
    TITLE "30:cjc135_5529"
    INDEX 01 11:24:28
  TRACK 541 AUDIO
    TITLE "0:"
    INDEX 01 11:26:37
  TRACK 542 AUDIO
    TITLE "31:cjc135_5530"
    INDEX 01 11:26:60
  TRACK 543 AUDIO
    TITLE "0:"
    INDEX 01 11:28:40
  TRACK 544 AUDIO
    TITLE "32:cjc135_5531"
    INDEX 01 11:28:65
  TRACK 545 AUDIO
    TITLE "0:"
    INDEX 01 11:30:44
  TRACK 546 AUDIO
    TITLE "29:cjc135_5532"
    INDEX 01 11:31:44
  TRACK 547 AUDIO
    TITLE "0:"
    INDEX 01 11:32:67
  TRACK 548 AUDIO
    TITLE "30:cjc135_5533"
    INDEX 01 11:33:39
  TRACK 549 AUDIO
    TITLE "0:"
    INDEX 01 11:36:72
  TRACK 550 AUDIO
    TITLE "31:cjc135_5534"
    INDEX 01 11:37:23
  TRACK 551 AUDIO
    TITLE "0:"
    INDEX 01 11:40:33
  TRACK 552 AUDIO
    TITLE "32:cjc135_5535"
    INDEX 01 11:40:60
  TRACK 553 AUDIO
    TITLE "0:"
    INDEX 01 11:43:73
  TRACK 554 AUDIO
    TITLE "29:cjc135_5536"
    INDEX 01 11:44:72
  TRACK 555 AUDIO
    TITLE "0:"
    INDEX 01 11:46:12
  TRACK 556 AUDIO
    TITLE "30:cjc135_5537"
    INDEX 01 11:46:65
  TRACK 557 AUDIO
    TITLE "0:"
    INDEX 01 11:50:14
  TRACK 558 AUDIO
    TITLE "31:cjc135_5538"
    INDEX 01 11:50:37
  TRACK 559 AUDIO
    TITLE "0:"
    INDEX 01 11:53:40
  TRACK 560 AUDIO
    TITLE "32:cjc135_5539"
    INDEX 01 11:53:65
  TRACK 561 AUDIO
    TITLE "0:"
    INDEX 01 11:56:67
  TRACK 562 AUDIO
    TITLE "29:cjc135_5540"
    INDEX 01 11:57:67
  TRACK 563 AUDIO
    TITLE "0:"
    INDEX 01 11:59:17
  TRACK 564 AUDIO
    TITLE "30:cjc135_5541"
    INDEX 01 11:59:64
  TRACK 565 AUDIO
    TITLE "0:"
    INDEX 01 12:02:58
  TRACK 566 AUDIO
    TITLE "31:cjc135_5542"
    INDEX 01 12:03:07
  TRACK 567 AUDIO
    TITLE "0:"
    INDEX 01 12:06:15
  TRACK 568 AUDIO
    TITLE "32:cjc135_5543"
    INDEX 01 12:06:42
  TRACK 569 AUDIO
    TITLE "0:"
    INDEX 01 12:09:50
  TRACK 570 AUDIO
    TITLE "29:cjc135_5544"
    INDEX 01 12:10:52
  TRACK 571 AUDIO
    TITLE "0:"
    INDEX 01 12:11:59
  TRACK 572 AUDIO
    TITLE "30:cjc135_5545"
    INDEX 01 12:12:33
  TRACK 573 AUDIO
    TITLE "0:"
    INDEX 01 12:15:71
  TRACK 574 AUDIO
    TITLE "31:cjc135_5546"
    INDEX 01 12:16:19
  TRACK 575 AUDIO
    TITLE "0:"
    INDEX 01 12:19:19
  TRACK 576 AUDIO
    TITLE "32:cjc135_5547"
    INDEX 01 12:19:43
  TRACK 577 AUDIO
    TITLE "0:"
    INDEX 01 12:22:41
  TRACK 578 AUDIO
    TITLE "29:cjc135_5548"
    INDEX 01 12:23:39
  TRACK 579 AUDIO
    TITLE "0:"
    INDEX 01 12:24:34
  TRACK 580 AUDIO
    TITLE "30:cjc135_5549"
    INDEX 01 12:25:06
  TRACK 581 AUDIO
    TITLE "0:"
    INDEX 01 12:26:61
  TRACK 582 AUDIO
    TITLE "31:cjc135_5550"
    INDEX 01 12:27:09
  TRACK 583 AUDIO
    TITLE "0:"
    INDEX 01 12:28:50
  TRACK 584 AUDIO
    TITLE "32:cjc135_5551"
    INDEX 01 12:28:71
  TRACK 585 AUDIO
    TITLE "0:"
    INDEX 01 12:30:37
  TRACK 586 AUDIO
    TITLE "29:cjc135_5552"
    INDEX 01 12:31:34
  TRACK 587 AUDIO
    TITLE "0:"
    INDEX 01 12:32:57
  TRACK 588 AUDIO
    TITLE "30:cjc135_5553"
    INDEX 01 12:33:31
  TRACK 589 AUDIO
    TITLE "0:"
    INDEX 01 12:35:24
  TRACK 590 AUDIO
    TITLE "31:cjc135_5554"
    INDEX 01 12:35:48
  TRACK 591 AUDIO
    TITLE "0:"
    INDEX 01 12:38:05
  TRACK 592 AUDIO
    TITLE "32:cjc135_5555"
    INDEX 01 12:38:32
  TRACK 593 AUDIO
    TITLE "0:"
    INDEX 01 12:40:67
  TRACK 594 AUDIO
    TITLE "29:cjc135_5556"
    INDEX 01 12:41:72
  TRACK 595 AUDIO
    TITLE "0:"
    INDEX 01 12:43:12
  TRACK 596 AUDIO
    TITLE "30:cjc135_5557"
    INDEX 01 12:43:63
  TRACK 597 AUDIO
    TITLE "0:"
    INDEX 01 12:46:30
  TRACK 598 AUDIO
    TITLE "31:cjc135_5558"
    INDEX 01 12:46:55
  TRACK 599 AUDIO
    TITLE "0:"
    INDEX 01 12:48:70
  TRACK 600 AUDIO
    TITLE "32:cjc135_5559"
    INDEX 01 12:49:21
  TRACK 601 AUDIO
    TITLE "0:"
    INDEX 01 12:51:37
  TRACK 602 AUDIO
    TITLE "29:cjc135_5560"
    INDEX 01 12:52:35
  TRACK 603 AUDIO
    TITLE "0:"
    INDEX 01 12:53:59
  TRACK 604 AUDIO
    TITLE "30:cjc135_5561"
    INDEX 01 12:54:35
  TRACK 605 AUDIO
    TITLE "0:"
    INDEX 01 12:56:66
  TRACK 606 AUDIO
    TITLE "31:cjc135_5562"
    INDEX 01 12:57:14
  TRACK 607 AUDIO
    TITLE "0:"
    INDEX 01 12:59:37
  TRACK 608 AUDIO
    TITLE "32:cjc135_5563"
    INDEX 01 12:59:60
  TRACK 609 AUDIO
    TITLE "0:"
    INDEX 01 13:02:06
  TRACK 610 AUDIO
    TITLE "29:cjc135_5564"
    INDEX 01 13:03:05
  TRACK 611 AUDIO
    TITLE "0:"
    INDEX 01 13:04:12
  TRACK 612 AUDIO
    TITLE "30:cjc135_5565"
    INDEX 01 13:04:61
  TRACK 613 AUDIO
    TITLE "0:"
    INDEX 01 13:07:67
  TRACK 614 AUDIO
    TITLE "31:cjc135_5566"
    INDEX 01 13:08:20
  TRACK 615 AUDIO
    TITLE "0:"
    INDEX 01 13:10:50
  TRACK 616 AUDIO
    TITLE "32:cjc135_5567"
    INDEX 01 13:11:01
  TRACK 617 AUDIO
    TITLE "0:"
    INDEX 01 13:13:29
  TRACK 618 AUDIO
    TITLE "29:cjc135_5568"
    INDEX 01 13:14:30
  TRACK 619 AUDIO
    TITLE "0:"
    INDEX 01 13:15:55
  TRACK 620 AUDIO
    TITLE "30:cjc135_5569"
    INDEX 01 13:16:29
  TRACK 621 AUDIO
    TITLE "0:"
    INDEX 01 13:18:52
  TRACK 622 AUDIO
    TITLE "31:cjc135_5570"
    INDEX 01 13:19:00
  TRACK 623 AUDIO
    TITLE "0:"
    INDEX 01 13:21:30
  TRACK 624 AUDIO
    TITLE "32:cjc135_5571"
    INDEX 01 13:21:54
  TRACK 625 AUDIO
    TITLE "0:"
    INDEX 01 13:24:09
  TRACK 626 AUDIO
    TITLE "29:cjc135_5572"
    INDEX 01 13:25:10
  TRACK 627 AUDIO
    TITLE "0:"
    INDEX 01 13:26:24
  TRACK 628 AUDIO
    TITLE "30:cjc135_5573"
    INDEX 01 13:26:73
  TRACK 629 AUDIO
    TITLE "0:"
    INDEX 01 13:29:18
  TRACK 630 AUDIO
    TITLE "31:cjc135_5574"
    INDEX 01 13:29:45
  TRACK 631 AUDIO
    TITLE "0:"
    INDEX 01 13:31:70
  TRACK 632 AUDIO
    TITLE "32:cjc135_5575"
    INDEX 01 13:32:20
  TRACK 633 AUDIO
    TITLE "0:"
    INDEX 01 13:34:45
  TRACK 634 AUDIO
    TITLE "29:cjc135_5576"
    INDEX 01 13:35:44
  TRACK 635 AUDIO
    TITLE "0:"
    INDEX 01 13:37:00
  TRACK 636 AUDIO
    TITLE "30:cjc135_5577"
    INDEX 01 13:37:49
  TRACK 637 AUDIO
    TITLE "0:"
    INDEX 01 13:39:54
  TRACK 638 AUDIO
    TITLE "31:cjc135_5578"
    INDEX 01 13:40:02
  TRACK 639 AUDIO
    TITLE "0:"
    INDEX 01 13:42:05
  TRACK 640 AUDIO
    TITLE "32:cjc135_5579"
    INDEX 01 13:42:32
  TRACK 641 AUDIO
    TITLE "0:"
    INDEX 01 13:44:37
  TRACK 642 AUDIO
    TITLE "29:cjc135_5580"
    INDEX 01 13:45:37
  TRACK 643 AUDIO
    TITLE "0:"
    INDEX 01 13:46:56
  TRACK 644 AUDIO
    TITLE "30:cjc135_5581"
    INDEX 01 13:47:30
  TRACK 645 AUDIO
    TITLE "0:"
    INDEX 01 13:49:36
  TRACK 646 AUDIO
    TITLE "31:cjc135_5582"
    INDEX 01 13:49:62
  TRACK 647 AUDIO
    TITLE "0:"
    INDEX 01 13:51:45
  TRACK 648 AUDIO
    TITLE "32:cjc135_5583"
    INDEX 01 13:51:71
  TRACK 649 AUDIO
    TITLE "0:"
    INDEX 01 13:53:52
  TRACK 650 AUDIO
    TITLE "29:cjc135_5584"
    INDEX 01 13:54:51
  TRACK 651 AUDIO
    TITLE "0:"
    INDEX 01 13:55:61
  TRACK 652 AUDIO
    TITLE "30:cjc135_5585"
    INDEX 01 13:56:35
  TRACK 653 AUDIO
    TITLE "0:"
    INDEX 01 13:58:67
  TRACK 654 AUDIO
    TITLE "31:cjc135_5586"
    INDEX 01 13:59:17
  TRACK 655 AUDIO
    TITLE "0:"
    INDEX 01 14:01:10
  TRACK 656 AUDIO
    TITLE "32:cjc135_5587"
    INDEX 01 14:01:34
  TRACK 657 AUDIO
    TITLE "0:"
    INDEX 01 14:03:27
  TRACK 658 AUDIO
    TITLE "29:cjc135_5588"
    INDEX 01 14:04:26
  TRACK 659 AUDIO
    TITLE "0:"
    INDEX 01 14:05:49
  TRACK 660 AUDIO
    TITLE "30:cjc135_5589"
    INDEX 01 14:06:25
  TRACK 661 AUDIO
    TITLE "0:"
    INDEX 01 14:08:26
  TRACK 662 AUDIO
    TITLE "31:cjc135_5590"
    INDEX 01 14:08:49
  TRACK 663 AUDIO
    TITLE "0:"
    INDEX 01 14:10:31
  TRACK 664 AUDIO
    TITLE "32:cjc135_5591"
    INDEX 01 14:10:54
  TRACK 665 AUDIO
    TITLE "0:"
    INDEX 01 14:12:36
  TRACK 666 AUDIO
    TITLE "29:cjc135_5592"
    INDEX 01 14:13:35
  TRACK 667 AUDIO
    TITLE "0:"
    INDEX 01 14:14:32
  TRACK 668 AUDIO
    TITLE "30:cjc135_5593"
    INDEX 01 14:15:06
  TRACK 669 AUDIO
    TITLE "0:"
    INDEX 01 14:17:15
  TRACK 670 AUDIO
    TITLE "31:cjc135_5594"
    INDEX 01 14:17:39
  TRACK 671 AUDIO
    TITLE "0:"
    INDEX 01 14:19:32
  TRACK 672 AUDIO
    TITLE "32:cjc135_5595"
    INDEX 01 14:19:55
  TRACK 673 AUDIO
    TITLE "0:"
    INDEX 01 14:21:46
  TRACK 674 AUDIO
    TITLE "29:cjc135_5596"
    INDEX 01 14:22:44
  TRACK 675 AUDIO
    TITLE "0:"
    INDEX 01 14:23:69
  TRACK 676 AUDIO
    TITLE "30:cjc135_5597"
    INDEX 01 14:24:43
  TRACK 677 AUDIO
    TITLE "0:"
    INDEX 01 14:27:21
  TRACK 678 AUDIO
    TITLE "31:cjc135_5598"
    INDEX 01 14:27:45
  TRACK 679 AUDIO
    TITLE "0:"
    INDEX 01 14:30:59
  TRACK 680 AUDIO
    TITLE "32:cjc135_5599"
    INDEX 01 14:31:07
  TRACK 681 AUDIO
    TITLE "0:"
    INDEX 01 14:34:21
  TRACK 682 AUDIO
    TITLE "29:cjc135_5600"
    INDEX 01 14:35:19
  TRACK 683 AUDIO
    TITLE "0:"
    INDEX 01 14:36:28
  TRACK 684 AUDIO
    TITLE "30:cjc135_5601"
    INDEX 01 14:37:02
  TRACK 685 AUDIO
    TITLE "0:"
    INDEX 01 14:39:66
  TRACK 686 AUDIO
    TITLE "31:cjc135_5602"
    INDEX 01 14:40:20
  TRACK 687 AUDIO
    TITLE "0:"
    INDEX 01 14:43:26
  TRACK 688 AUDIO
    TITLE "32:cjc135_5603"
    INDEX 01 14:43:52
  TRACK 689 AUDIO
    TITLE "0:"
    INDEX 01 14:46:60
  TRACK 690 AUDIO
    TITLE "29:cjc135_5604"
    INDEX 01 14:47:59
  TRACK 691 AUDIO
    TITLE "0:"
    INDEX 01 14:49:03
  TRACK 692 AUDIO
    TITLE "30:cjc135_5605"
    INDEX 01 14:49:52
  TRACK 693 AUDIO
    TITLE "0:"
    INDEX 01 14:51:65
  TRACK 694 AUDIO
    TITLE "31:cjc135_5606"
    INDEX 01 14:52:15
  TRACK 695 AUDIO
    TITLE "0:"
    INDEX 01 14:54:22
  TRACK 696 AUDIO
    TITLE "32:cjc135_5607"
    INDEX 01 14:54:48
  TRACK 697 AUDIO
    TITLE "0:"
    INDEX 01 14:56:54
  TRACK 698 AUDIO
    TITLE "29:cjc135_5608"
    INDEX 01 14:57:54
  TRACK 699 AUDIO
    TITLE "0:"
    INDEX 01 14:58:69
  TRACK 700 AUDIO
    TITLE "30:cjc135_5609"
    INDEX 01 14:59:45
  TRACK 701 AUDIO
    TITLE "0:"
    INDEX 01 15:03:74
  TRACK 702 AUDIO
    TITLE "31:cjc135_5610"
    INDEX 01 15:04:23
  TRACK 703 AUDIO
    TITLE "0:"
    INDEX 01 15:07:27
  TRACK 704 AUDIO
    TITLE "32:cjc135_5611"
    INDEX 01 15:07:52
  TRACK 705 AUDIO
    TITLE "0:"
    INDEX 01 15:10:56
  TRACK 706 AUDIO
    TITLE "29:cjc135_5612"
    INDEX 01 15:11:54
  TRACK 707 AUDIO
    TITLE "0:"
    INDEX 01 15:12:73
  TRACK 708 AUDIO
    TITLE "30:cjc135_5613"
    INDEX 01 15:13:47
  TRACK 709 AUDIO
    TITLE "0:"
    INDEX 01 15:15:71
  TRACK 710 AUDIO
    TITLE "31:cjc135_5614"
    INDEX 01 15:16:22
  TRACK 711 AUDIO
    TITLE "0:"
    INDEX 01 15:18:21
  TRACK 712 AUDIO
    TITLE "32:cjc135_5615"
    INDEX 01 15:18:44
  TRACK 713 AUDIO
    TITLE "0:"
    INDEX 01 15:20:43
  TRACK 714 AUDIO
    TITLE "29:cjc135_5616"
    INDEX 01 15:21:43
  TRACK 715 AUDIO
    TITLE "0:"
    INDEX 01 15:22:60
  TRACK 716 AUDIO
    TITLE "30:cjc135_5617"
    INDEX 01 15:23:36
  TRACK 717 AUDIO
    TITLE "0:"
    INDEX 01 15:24:72
  TRACK 718 AUDIO
    TITLE "31:cjc135_5618"
    INDEX 01 15:25:23
  TRACK 719 AUDIO
    TITLE "0:"
    INDEX 01 15:27:08
  TRACK 720 AUDIO
    TITLE "32:cjc135_5619"
    INDEX 01 15:27:31
  TRACK 721 AUDIO
    TITLE "0:"
    INDEX 01 15:29:19
  TRACK 722 AUDIO
    TITLE "29:cjc135_5620"
    INDEX 01 15:30:18
  TRACK 723 AUDIO
    TITLE "0:"
    INDEX 01 15:31:21
  TRACK 724 AUDIO
    TITLE "30:cjc135_5621"
    INDEX 01 15:31:70
  TRACK 725 AUDIO
    TITLE "0:"
    INDEX 01 15:34:35
  TRACK 726 AUDIO
    TITLE "31:cjc135_5622"
    INDEX 01 15:34:59
  TRACK 727 AUDIO
    TITLE "0:"
    INDEX 01 15:37:47
  TRACK 728 AUDIO
    TITLE "32:cjc135_5623"
    INDEX 01 15:37:71
  TRACK 729 AUDIO
    TITLE "0:"
    INDEX 01 15:40:60
  TRACK 730 AUDIO
    TITLE "29:cjc135_5624"
    INDEX 01 15:41:59
  TRACK 731 AUDIO
    TITLE "0:"
    INDEX 01 15:42:68
  TRACK 732 AUDIO
    TITLE "30:cjc135_5625"
    INDEX 01 15:43:42
  TRACK 733 AUDIO
    TITLE "0:"
    INDEX 01 15:44:57
  TRACK 734 AUDIO
    TITLE "31:cjc135_5626"
    INDEX 01 15:45:08
  TRACK 735 AUDIO
    TITLE "0:"
    INDEX 01 15:46:60
  TRACK 736 AUDIO
    TITLE "32:cjc135_5627"
    INDEX 01 15:47:09
  TRACK 737 AUDIO
    TITLE "0:"
    INDEX 01 15:48:63
  TRACK 738 AUDIO
    TITLE "29:cjc135_5628"
    INDEX 01 15:49:62
  TRACK 739 AUDIO
    TITLE "0:"
    INDEX 01 15:50:68
  TRACK 740 AUDIO
    TITLE "30:cjc135_5629"
    INDEX 01 15:51:40
  TRACK 741 AUDIO
    TITLE "0:"
    INDEX 01 15:53:31
  TRACK 742 AUDIO
    TITLE "31:cjc135_5630"
    INDEX 01 15:53:56
  TRACK 743 AUDIO
    TITLE "0:"
    INDEX 01 15:55:61
  TRACK 744 AUDIO
    TITLE "32:cjc135_5631"
    INDEX 01 15:56:10
  TRACK 745 AUDIO
    TITLE "0:"
    INDEX 01 15:58:12
  TRACK 746 AUDIO
    TITLE "29:cjc135_5632"
    INDEX 01 15:59:12
  TRACK 747 AUDIO
    TITLE "0:"
    INDEX 01 16:00:19
  TRACK 748 AUDIO
    TITLE "30:cjc135_5633"
    INDEX 01 16:00:70
  TRACK 749 AUDIO
    TITLE "0:"
    INDEX 01 16:02:63
  TRACK 750 AUDIO
    TITLE "31:cjc135_5634"
    INDEX 01 16:03:12
  TRACK 751 AUDIO
    TITLE "0:"
    INDEX 01 16:04:50
  TRACK 752 AUDIO
    TITLE "32:cjc135_5635"
    INDEX 01 16:05:01
  TRACK 753 AUDIO
    TITLE "0:"
    INDEX 01 16:06:37
  TRACK 754 AUDIO
    TITLE "29:cjc135_5636"
    INDEX 01 16:07:37
  TRACK 755 AUDIO
    TITLE "0:"
    INDEX 01 16:08:48
  TRACK 756 AUDIO
    TITLE "30:cjc135_5637"
    INDEX 01 16:09:22
  TRACK 757 AUDIO
    TITLE "0:"
    INDEX 01 16:11:25
  TRACK 758 AUDIO
    TITLE "31:cjc135_5638"
    INDEX 01 16:11:50
  TRACK 759 AUDIO
    TITLE "0:"
    INDEX 01 16:13:16
  TRACK 760 AUDIO
    TITLE "32:cjc135_5639"
    INDEX 01 16:13:39
  TRACK 761 AUDIO
    TITLE "0:"
    INDEX 01 16:15:05
  TRACK 762 AUDIO
    TITLE "29:cjc135_5640"
    INDEX 01 16:16:04
  TRACK 763 AUDIO
    TITLE "0:"
    INDEX 01 16:17:12
  TRACK 764 AUDIO
    TITLE "30:cjc135_5641"
    INDEX 01 16:17:59
  TRACK 765 AUDIO
    TITLE "0:"
    INDEX 01 16:20:04
  TRACK 766 AUDIO
    TITLE "31:cjc135_5642"
    INDEX 01 16:20:28
  TRACK 767 AUDIO
    TITLE "0:"
    INDEX 01 16:22:40
  TRACK 768 AUDIO
    TITLE "32:cjc135_5643"
    INDEX 01 16:22:64
  TRACK 769 AUDIO
    TITLE "0:"
    INDEX 01 16:25:03
  TRACK 770 AUDIO
    TITLE "29:cjc135_5644"
    INDEX 01 16:26:03
  TRACK 771 AUDIO
    TITLE "0:"
    INDEX 01 16:27:12
  TRACK 772 AUDIO
    TITLE "30:cjc135_5645"
    INDEX 01 16:27:63
  TRACK 773 AUDIO
    TITLE "0:"
    INDEX 01 16:29:44
  TRACK 774 AUDIO
    TITLE "31:cjc135_5646"
    INDEX 01 16:29:68
  TRACK 775 AUDIO
    TITLE "0:"
    INDEX 01 16:31:55
  TRACK 776 AUDIO
    TITLE "32:cjc135_5647"
    INDEX 01 16:32:05
  TRACK 777 AUDIO
    TITLE "0:"
    INDEX 01 16:33:66
  TRACK 778 AUDIO
    TITLE "29:cjc135_5648"
    INDEX 01 16:34:67
  TRACK 779 AUDIO
    TITLE "0:"
    INDEX 01 16:35:70
  TRACK 780 AUDIO
    TITLE "30:cjc135_5649"
    INDEX 01 16:36:48
  TRACK 781 AUDIO
    TITLE "0:"
    INDEX 01 16:39:31
  TRACK 782 AUDIO
    TITLE "31:cjc135_5650"
    INDEX 01 16:39:56
  TRACK 783 AUDIO
    TITLE "0:"
    INDEX 01 16:41:57
  TRACK 784 AUDIO
    TITLE "32:cjc135_5651"
    INDEX 01 16:42:04
  TRACK 785 AUDIO
    TITLE "0:"
    INDEX 01 16:44:05
  TRACK 786 AUDIO
    TITLE "29:cjc135_5652"
    INDEX 01 16:45:02
  TRACK 787 AUDIO
    TITLE "0:"
    INDEX 01 16:46:11
  TRACK 788 AUDIO
    TITLE "30:cjc135_5653"
    INDEX 01 16:46:60
  TRACK 789 AUDIO
    TITLE "0:"
    INDEX 01 16:48:59
  TRACK 790 AUDIO
    TITLE "31:cjc135_5654"
    INDEX 01 16:49:10
  TRACK 791 AUDIO
    TITLE "0:"
    INDEX 01 16:51:24
  TRACK 792 AUDIO
    TITLE "32:cjc135_5655"
    INDEX 01 16:51:50
  TRACK 793 AUDIO
    TITLE "0:"
    INDEX 01 16:53:64
  TRACK 794 AUDIO
    TITLE "29:cjc135_5656"
    INDEX 01 16:54:62
  TRACK 795 AUDIO
    TITLE "0:"
    INDEX 01 16:56:02
  TRACK 796 AUDIO
    TITLE "30:cjc135_5657"
    INDEX 01 16:56:53
  TRACK 797 AUDIO
    TITLE "0:"
    INDEX 01 16:58:07
  TRACK 798 AUDIO
    TITLE "31:cjc135_5658"
    INDEX 01 16:58:32
  TRACK 799 AUDIO
    TITLE "0:"
    INDEX 01 17:00:10
  TRACK 800 AUDIO
    TITLE "32:cjc135_5659"
    INDEX 01 17:00:33
  TRACK 801 AUDIO
    TITLE "0:"
    INDEX 01 17:02:08
